<svg id="browser" xmlns="http://www.w3.org/2000/svg" width="81.176" height="70.087" viewBox="0 0 81.176 70.087">
  <path id="Shape" d="M79.987,26.142a1.189,1.189,0,0,0,1.189-1.189V4.334A4.339,4.339,0,0,0,76.842,0H4.334A4.339,4.339,0,0,0,0,4.334V67.46a2.63,2.63,0,0,0,2.627,2.627H78.55a2.63,2.63,0,0,0,2.627-2.627V29.807a1.189,1.189,0,1,0-2.378,0V67.46a.249.249,0,0,1-.248.248H2.627a.249.249,0,0,1-.248-.248V14.252c17.415-.057,34.984-.056,52.243,0h0a1.189,1.189,0,0,0,0-2.378c-17.261-.06-34.833-.061-52.251,0V4.334A1.958,1.958,0,0,1,4.334,2.378H76.842A1.958,1.958,0,0,1,78.8,4.334v7.533c-6.361-.051-12.576-.049-18.956.01a1.189,1.189,0,0,0,.011,2.378h.011c6.372-.058,12.58-.061,18.934-.009V24.953A1.189,1.189,0,0,0,79.987,26.142Z" fill="#05f"/>
  <path id="Shape-2" data-name="Shape" d="M43.606,0H1.189a1.189,1.189,0,0,0,0,2.378H43.606a1.189,1.189,0,0,0,0-2.378Z" transform="translate(10.569 6.158)" fill="#05f"/>
  <path id="Shape-3" data-name="Shape" d="M1.189,0A1.189,1.189,0,0,0,0,1.189V1.4a1.189,1.189,0,0,0,2.378,0V1.189A1.189,1.189,0,0,0,1.189,0Z" transform="translate(58.736 5.835)" fill="#05f"/>
  <path id="Shape-4" data-name="Shape" d="M1.189,0A1.189,1.189,0,0,0,0,1.189V1.4a1.189,1.189,0,0,0,2.378,0V1.189A1.189,1.189,0,0,0,1.189,0Z" transform="translate(63.483 5.835)" fill="#05f"/>
  <path id="Shape-5" data-name="Shape" d="M1.189,0A1.189,1.189,0,0,0,0,1.189V1.4a1.189,1.189,0,0,0,2.378,0V1.189A1.189,1.189,0,0,0,1.189,0Z" transform="translate(68.23 5.835)" fill="#05f"/>
  <path id="Shape-6" data-name="Shape" d="M21.6,0H5.381A5.387,5.387,0,0,0,0,5.381v5.124a1.189,1.189,0,0,0,2.378,0V5.381a3.007,3.007,0,0,1,3-3H21.6a3.007,3.007,0,0,1,3,3V21.6a3.006,3.006,0,0,1-3,3H5.381a3.006,3.006,0,0,1-3-3V15.36A1.189,1.189,0,1,0,0,15.36V21.6a5.387,5.387,0,0,0,5.381,5.381H21.6A5.387,5.387,0,0,0,26.977,21.6V5.381A5.387,5.387,0,0,0,21.6,0Z" transform="translate(11.679 27.554)" fill="#05f"/>
  <path id="Shape-7" data-name="Shape" d="M2.4,10.224A2.4,2.4,0,0,1,0,7.823V2.4A2.4,2.4,0,0,1,3.465.252L8.927,2.964a2.4,2.4,0,0,1,0,4.3L3.465,9.972A2.4,2.4,0,0,1,2.4,10.224Zm0-7.842a.025.025,0,0,0-.022.01V7.823a.029.029,0,0,0,.021.022L7.869,5.13A.031.031,0,0,0,7.878,5.1L2.408,2.383Z" transform="translate(20.038 35.931)" fill="#05f"/>
  <path id="Shape-8" data-name="Shape" d="M7.619,0H1.189a1.189,1.189,0,0,0,0,2.378H7.619A1.189,1.189,0,1,0,7.619,0Z" transform="translate(45.914 29.813)" fill="#05f"/>
  <path id="Shape-9" data-name="Shape" d="M20.1,0H1.189a1.189,1.189,0,0,0,0,2.378H20.1A1.189,1.189,0,0,0,20.1,0Z" transform="translate(45.914 38.064)" fill="#05f"/>
  <path id="Shape-10" data-name="Shape" d="M20.1,0H1.189a1.189,1.189,0,0,0,0,2.378H20.1A1.189,1.189,0,0,0,20.1,0Z" transform="translate(45.914 43.979)" fill="#05f"/>
  <path id="Shape-11" data-name="Shape" d="M20.1,0H1.189a1.189,1.189,0,0,0,0,2.378H20.1A1.189,1.189,0,0,0,20.1,0Z" transform="translate(45.914 49.895)" fill="#05f"/>
</svg>
