<svg id="multitask" xmlns="http://www.w3.org/2000/svg" width="81.177" height="77.709" viewBox="0 0 81.177 77.709">
  <path id="Shape" d="M44.2,16.553q.008-.165.008-.33a7.184,7.184,0,0,0-6.716-7.158A15.456,15.456,0,0,0,8.6,11.071,9.4,9.4,0,0,0,0,20.421a1.585,1.585,0,0,0,3.171,0,6.221,6.221,0,0,1,6.217-6.212c.107,0,.225,0,.363.012a1.58,1.58,0,0,0,1.644-1.263,12.284,12.284,0,0,1,23.557-1.743,1.588,1.588,0,0,0,1.656,1.03,4,4,0,0,1,4.334,4.86,1.586,1.586,0,0,0,.951,1.817,4,4,0,0,1-1.5,7.711H23.782a1.585,1.585,0,1,0,0,3.171H40.388A7.173,7.173,0,0,0,44.2,16.553Z" transform="translate(33.612)" fill="#05f"/>
  <path id="Shape-2" data-name="Shape" d="M2.706.465a1.584,1.584,0,0,0-2.242,0,1.584,1.584,0,0,0,0,2.242A1.585,1.585,0,1,0,2.706.465Z" transform="translate(63.766 15.689)" fill="#05f"/>
  <path id="Shape-3" data-name="Shape" d="M2.706.465a1.586,1.586,0,0,0-2.243,0,1.588,1.588,0,0,0,0,2.242,1.586,1.586,0,0,0,2.243,0,1.588,1.588,0,0,0,0-2.242Z" transform="translate(55.807 15.689)" fill="#05f"/>
  <path id="Shape-4" data-name="Shape" d="M2.706.465a1.586,1.586,0,0,0-2.243,0,1.588,1.588,0,0,0,0,2.242,1.586,1.586,0,0,0,2.243,0,1.584,1.584,0,0,0,0-2.242Z" transform="translate(47.847 15.689)" fill="#05f"/>
  <path id="Shape-5" data-name="Shape" d="M45.707,54.332H1.585A1.587,1.587,0,0,1,0,52.747V42.983A15.375,15.375,0,0,1,10.554,28.366l5.557-1.841v-.538a12.917,12.917,0,0,1-3.806-4.438,12.772,12.772,0,0,1-1.428-5.863v-6.5A9.2,9.2,0,0,1,20.067,0H34.831a1.587,1.587,0,0,1,1.585,1.585v14.1a12.77,12.77,0,0,1-1.428,5.863,12.925,12.925,0,0,1-3.806,4.439v.537l5.557,1.842A15.372,15.372,0,0,1,47.293,42.983v9.763A1.587,1.587,0,0,1,45.707,54.332ZM38.234,40.873a1.587,1.587,0,0,1,1.585,1.585v8.7h4.3V42.983A12.208,12.208,0,0,0,35.74,31.376l-4.674-1.549V30a7.42,7.42,0,0,1-14.84,0v-.176l-4.674,1.549A12.21,12.21,0,0,0,3.171,42.983v8.178h4.3v-8.7a1.585,1.585,0,1,1,3.171,0v8.7h26v-8.7A1.587,1.587,0,0,1,38.234,40.873ZM19.4,27.727V30a4.249,4.249,0,0,0,8.5,0V27.727a12.735,12.735,0,0,1-8.5,0Zm1.664-16.108a12.279,12.279,0,0,1-7.014,3.345v.722a9.6,9.6,0,1,0,19.2,0V14.539a12.482,12.482,0,0,1-3.584.528,12.35,12.35,0,0,1-8.6-3.447Zm0-3.953a1.575,1.575,0,0,1,1.255.616A9.218,9.218,0,0,0,29.661,11.9a9.371,9.371,0,0,0,3.584-.723v-8H20.067a6.025,6.025,0,0,0-6.018,6.018v2.573a9.239,9.239,0,0,0,5.759-3.479A1.575,1.575,0,0,1,21.062,7.666Z" transform="translate(16.941 23.377)" fill="#05f"/>
  <path id="Shape-6" data-name="Shape" d="M33.934,4.9A22.328,22.328,0,0,0,31.66,4.14V1.589A1.586,1.586,0,0,0,30.075,0L21.313,0h0a1.586,1.586,0,0,0-1.585,1.585V4.139a22.113,22.113,0,0,0-5.044,2.089L12.872,4.417a1.586,1.586,0,0,0-2.242,0l-6.2,6.192a1.585,1.585,0,0,0,0,2.243l1.814,1.814A22.119,22.119,0,0,0,4.157,19.71H1.589A1.586,1.586,0,0,0,0,21.294l0,8.761a1.586,1.586,0,0,0,1.585,1.586H4.157a22.123,22.123,0,0,0,2.089,5.045L4.424,38.508a1.586,1.586,0,0,0,0,2.242l6.2,6.2a1.585,1.585,0,0,0,2.242,0l1.821-1.821a22.155,22.155,0,0,0,6.3,2.4,1.6,1.6,0,0,0,.335.036,1.586,1.586,0,0,0,.332-3.136A19,19,0,0,1,15.3,41.792a1.585,1.585,0,0,0-1.982.21L11.74,43.582,7.787,39.629,9.366,38.05a1.585,1.585,0,0,0,.21-1.982A19,19,0,0,1,6.95,29.723,1.586,1.586,0,0,0,5.4,28.471H3.172l0-5.59H5.4a1.585,1.585,0,0,0,1.55-1.252,19.005,19.005,0,0,1,2.627-6.345,1.585,1.585,0,0,0-.21-1.982L7.8,11.73,11.75,7.779,13.32,9.349a1.585,1.585,0,0,0,1.982.21,19,19,0,0,1,6.345-2.627A1.585,1.585,0,0,0,22.9,5.382V3.172l5.591,0V5.383a1.585,1.585,0,0,0,1.252,1.55,19.168,19.168,0,0,1,3.025.918A1.586,1.586,0,0,0,33.934,4.9Z" transform="translate(0 5.097)" fill="#05f"/>
  <path id="Shape-7" data-name="Shape" d="M11.762,19.063A8.593,8.593,0,0,1,7.573,2.969,1.585,1.585,0,1,0,6.024.2a11.764,11.764,0,0,0,5.739,22.032,1.585,1.585,0,0,0,0-3.171Z" transform="translate(13.922 20.31)" fill="#05f"/>
  <path id="Shape-8" data-name="Shape" d="M1.585,0a1.585,1.585,0,0,0,0,3.171H1.6A1.585,1.585,0,0,0,1.585,0Z" transform="translate(24.084 19.02)" fill="#05f"/>
  <path id="Shape-9" data-name="Shape" d="M6.395,0A1.586,1.586,0,0,0,4.809,1.585V25.021H1.585a1.585,1.585,0,0,0,0,3.171H6.395A1.586,1.586,0,0,0,7.98,26.606V1.585A1.586,1.586,0,0,0,6.395,0Z" transform="translate(66.22 40.959)" fill="#05f"/>
  <path id="Shape-10" data-name="Shape" d="M2.706.463A1.585,1.585,0,0,0,0,1.585,1.586,1.586,0,0,0,1.585,3.171,1.586,1.586,0,0,0,2.706.463Z" transform="translate(71.029 34.659)" fill="#05f"/>
  <path id="Shape-11" data-name="Shape" d="M6.21,12.434H3.171V1.585A1.585,1.585,0,1,0,0,1.585V14.02a1.586,1.586,0,0,0,1.585,1.585H6.21a1.585,1.585,0,0,0,0-3.171Z" transform="translate(6.95 53.546)" fill="#05f"/>
</svg>
