<svg id="open-book" xmlns="http://www.w3.org/2000/svg" width="81.018" height="81.019" viewBox="0 0 81.018 81.019">
  <path id="Shape" d="M.147,7.365a1.352,1.352,0,0,0,1.818.59A115.762,115.762,0,0,1,13.912,2.639,1.351,1.351,0,0,0,13.1.063,115.817,115.817,0,0,0,.738,5.549,1.351,1.351,0,0,0,.147,7.365Z" transform="translate(45.909 31.057)" fill="#05f"/>
  <path id="Shape-2" data-name="Shape" d="M1.352,8.1a1.348,1.348,0,0,0,.612-.147A115.761,115.761,0,0,1,13.912,2.639,1.351,1.351,0,0,0,13.1.063,115.817,115.817,0,0,0,.738,5.549,1.35,1.35,0,0,0,1.352,8.1Z" transform="translate(45.909 14.853)" fill="#05f"/>
  <path id="Shape-3" data-name="Shape" d="M79.668,20.255a1.35,1.35,0,0,0-1.35,1.35V74.267a4.056,4.056,0,0,1-4.051,4.051H41.86V75.211a39.793,39.793,0,0,1,12.153-2.294,69.649,69.649,0,0,1,19.829,2.632,1.35,1.35,0,0,0,1.776-1.282V14.854a1.348,1.348,0,0,0-1.057-1.318s-1.059-.236-2.868-.569a1.35,1.35,0,0,0-.489,2.656c.69.127,1.268.239,1.714.328V72.473a76.258,76.258,0,0,0-18.9-2.256A42.421,42.421,0,0,0,40.562,72.8a31.633,31.633,0,0,0-12.205-2.587A90.994,90.994,0,0,0,8.1,72.53V15.9a88.881,88.881,0,0,1,20.255-2.4,29.277,29.277,0,0,1,10.8,2.225V68.866A1.35,1.35,0,0,0,41.2,70.023c.134-.08,13.512-8.071,25.387-12.029a1.35,1.35,0,0,0,.924-1.281V1.351A1.352,1.352,0,0,0,65.689.086,143.641,143.641,0,0,0,43.844,11.008a1.35,1.35,0,1,0,1.431,2.29A144.323,144.323,0,0,1,64.814,3.325V55.747A151.324,151.324,0,0,0,41.859,66.521V14.854a1.352,1.352,0,0,0-.747-1.208A31.267,31.267,0,0,0,28.356,10.8,87.638,87.638,0,0,0,6.38,13.556a1.349,1.349,0,0,0-.979,1.3V74.267a1.35,1.35,0,0,0,1.35,1.35,1.331,1.331,0,0,0,.37-.053,86.74,86.74,0,0,1,21.235-2.648,29.212,29.212,0,0,1,10.8,2.227v3.175H6.751A4.056,4.056,0,0,1,2.7,74.267V21.606a1.35,1.35,0,1,0-2.7,0V74.267a6.759,6.759,0,0,0,6.752,6.752H74.267a6.759,6.759,0,0,0,6.752-6.752V21.606A1.35,1.35,0,0,0,79.668,20.255Z" transform="translate(0 0)" fill="#05f"/>
  <path id="Shape-4" data-name="Shape" d="M.147,7.365a1.352,1.352,0,0,0,1.818.59A115.762,115.762,0,0,1,13.912,2.639,1.351,1.351,0,0,0,13.1.063,115.817,115.817,0,0,0,.738,5.549,1.351,1.351,0,0,0,.147,7.365Z" transform="translate(45.909 22.955)" fill="#05f"/>
  <path id="Shape-5" data-name="Shape" d="M.147,7.365a1.352,1.352,0,0,0,1.818.59A115.762,115.762,0,0,1,13.912,2.639,1.351,1.351,0,0,0,13.1.063,115.817,115.817,0,0,0,.738,5.549,1.351,1.351,0,0,0,.147,7.365Z" transform="translate(45.909 39.159)" fill="#05f"/>
  <path id="Shape-6" data-name="Shape" d="M19.213.747C10.874-1.209,1.4,1.283,1,1.39a1.35,1.35,0,0,0,.348,2.655A1.373,1.373,0,0,0,1.7,4c.091-.026,9.213-2.425,16.9-.623A1.35,1.35,0,1,0,19.213.747Z" transform="translate(13.503 24.313)" fill="#05f"/>
  <path id="Shape-7" data-name="Shape" d="M19.213.747C10.874-1.209,1.4,1.283,1,1.389a1.35,1.35,0,0,0,.348,2.655A1.373,1.373,0,0,0,1.7,4c.091-.026,9.213-2.425,16.9-.623A1.35,1.35,0,1,0,19.213.747Z" transform="translate(13.503 32.415)" fill="#05f"/>
  <path id="Shape-8" data-name="Shape" d="M.147,7.365a1.352,1.352,0,0,0,1.818.59A115.762,115.762,0,0,1,13.912,2.639,1.351,1.351,0,0,0,13.1.063,115.817,115.817,0,0,0,.738,5.549,1.351,1.351,0,0,0,.147,7.365Z" transform="translate(45.909 47.261)" fill="#05f"/>
  <path id="Shape-9" data-name="Shape" d="M19.213.747C10.874-1.208,1.4,1.281,1,1.39a1.351,1.351,0,0,0,.348,2.656A1.368,1.368,0,0,0,1.7,4c.091-.026,9.213-2.425,16.9-.623A1.35,1.35,0,1,0,19.213.747Z" transform="translate(13.503 40.517)" fill="#05f"/>
  <path id="Shape-10" data-name="Shape" d="M19.213.747C10.874-1.209,1.4,1.283,1,1.39a1.351,1.351,0,0,0,.348,2.656A1.368,1.368,0,0,0,1.7,4c.091-.026,9.213-2.425,16.9-.623A1.35,1.35,0,1,0,19.213.747Z" transform="translate(13.503 56.72)" fill="#05f"/>
  <path id="Shape-11" data-name="Shape" d="M19.213.747C10.874-1.209,1.4,1.282,1,1.39a1.351,1.351,0,0,0,.348,2.656A1.368,1.368,0,0,0,1.7,4c.091-.026,9.213-2.425,16.9-.623A1.35,1.35,0,1,0,19.213.747Z" transform="translate(13.503 48.618)" fill="#05f"/>
</svg>
