<svg id="request" xmlns="http://www.w3.org/2000/svg" width="81.176" height="81.173" viewBox="0 0 81.176 81.173">
  <path id="Shape" d="M2.706.465A1.585,1.585,0,1,0,.465,2.706a1.584,1.584,0,0,0,2.242,0,1.584,1.584,0,0,0,0-2.242Z" transform="translate(34.722 56.121)" fill="#05f"/>
  <path id="Shape-2" data-name="Shape" d="M49.625,72.615H22.99A1.588,1.588,0,0,1,21.4,71.03a7.948,7.948,0,0,1,7.132-7.9V55.809H4.408A4.409,4.409,0,0,1,0,51.409V4.4A4.409,4.409,0,0,1,4.408,0H37.364a1.585,1.585,0,1,1,0,3.171H4.408A1.235,1.235,0,0,0,3.171,4.4V42.491H8.562V38.578a11.843,11.843,0,0,1,10.37-11.74,8.3,8.3,0,0,1-1.846-5.205V15.578A6.692,6.692,0,0,1,23.77,8.894h8.295a1.587,1.587,0,0,1,1.585,1.585V21.633A8.292,8.292,0,0,1,31.8,26.838a11.844,11.844,0,0,1,10.37,11.739v3.914h27.27V35.518a1.585,1.585,0,1,1,3.171,0V51.409a4.409,4.409,0,0,1-4.408,4.4H44.08v7.324a7.948,7.948,0,0,1,7.131,7.9A1.587,1.587,0,0,1,49.625,72.615ZM29.341,66.263a4.778,4.778,0,0,0-4.5,3.181H47.769a4.777,4.777,0,0,0-4.495-3.181H29.341Zm2.365-10.455v7.283h9.2V55.809ZM3.171,45.662v5.747a1.235,1.235,0,0,0,1.237,1.229h63.8a1.235,1.235,0,0,0,1.237-1.229V45.662ZM19.127,30.01h0a8.674,8.674,0,0,0-7.394,8.568v3.913H39V38.578a8.673,8.673,0,0,0-7.394-8.568l-5.12,5.12a1.586,1.586,0,0,1-2.242,0l-5.12-5.12Zm4.391-.094,1.85,1.85,1.85-1.85Zm-3.261-9.868v1.585a5.111,5.111,0,0,0,10.223,0V19.546a5.389,5.389,0,0,1-2.28.5Zm3.512-7.984a3.517,3.517,0,0,0-3.512,3.513v1.3H28.2A2.284,2.284,0,0,0,30.479,14.6V12.065Z" transform="translate(0 8.558)" fill="#05f"/>
  <path id="Shape-3" data-name="Shape" d="M2.706.465a1.584,1.584,0,0,0-2.242,0A1.585,1.585,0,0,0,1.585,3.171,1.585,1.585,0,0,0,2.706.465Z" transform="translate(69.444 36.518)" fill="#05f"/>
  <path id="Shape-4" data-name="Shape" d="M13.477,0H1.585a1.585,1.585,0,0,0,0,3.171H13.477a1.585,1.585,0,0,0,0-3.171Z" transform="translate(57.553 7.452)" fill="#05f"/>
  <path id="Shape-5" data-name="Shape" d="M2.706.465a1.584,1.584,0,0,0-2.242,0,1.585,1.585,0,0,0,0,2.242,1.584,1.584,0,0,0,2.242,0,1.584,1.584,0,0,0,0-2.242Z" transform="translate(51.052 7.452)" fill="#05f"/>
  <path id="Shape-6" data-name="Shape" d="M19.977,0H1.585a1.585,1.585,0,0,0,0,3.171H19.977a1.585,1.585,0,0,0,0-3.171Z" transform="translate(51.052 14.428)" fill="#05f"/>
  <path id="Shape-7" data-name="Shape" d="M19.977,0H1.585a1.585,1.585,0,0,0,0,3.171H19.977a1.585,1.585,0,0,0,0-3.171Z" transform="translate(51.052 21.404)" fill="#05f"/>
  <path id="Shape-8" data-name="Shape" d="M8.614,38.475a1.587,1.587,0,0,1-1.584-1.586v-4.12A7.939,7.939,0,0,1,0,24.892V7.928A7.937,7.937,0,0,1,7.928,0H30.759a7.936,7.936,0,0,1,7.927,7.928V24.892a7.936,7.936,0,0,1-7.927,7.927H14.926L9.735,38.01A1.576,1.576,0,0,1,8.614,38.475Zm-.686-35.3A4.762,4.762,0,0,0,3.171,7.928V24.892a4.762,4.762,0,0,0,4.757,4.756h.687A1.587,1.587,0,0,1,10.2,31.234v1.827l2.948-2.948a1.6,1.6,0,0,1,1.121-.465H30.759a4.762,4.762,0,0,0,4.756-4.756V7.928a4.762,4.762,0,0,0-4.756-4.757Z" transform="translate(42.491 0)" fill="#05f"/>
</svg>
