<svg id="website" xmlns="http://www.w3.org/2000/svg" width="81.177" height="78.471" viewBox="0 0 81.177 78.471">
  <path id="Shape" d="M9.471,0H1.353a1.353,1.353,0,0,0,0,2.706H9.471A1.353,1.353,0,0,0,9.471,0Z" transform="translate(35.177 54.118)" fill="#05f"/>
  <path id="Shape-2" data-name="Shape" d="M69,46H1.353A1.354,1.354,0,0,1,0,44.647V1.353A1.354,1.354,0,0,1,1.353,0H69a1.354,1.354,0,0,1,1.353,1.353V44.647A1.354,1.354,0,0,1,69,46ZM2.706,2.706V43.294H67.647V2.706Z" transform="translate(5.412 5.412)" fill="#05f"/>
  <path id="Shape-3" data-name="Shape" d="M75.763,13.53H5.413A5.419,5.419,0,0,1,0,8.116V1.353A1.354,1.354,0,0,1,1.353,0H79.823a1.354,1.354,0,0,1,1.353,1.353V8.116A5.42,5.42,0,0,1,75.763,13.53ZM2.706,2.706v5.41a2.71,2.71,0,0,0,2.707,2.708h70.35a2.711,2.711,0,0,0,2.708-2.708V2.706Z" transform="translate(0 48.706)" fill="#05f"/>
  <path id="Shape-4" data-name="Shape" d="M39.235,8.118H4.058A4.059,4.059,0,0,1,4.058,0H39.235a4.059,4.059,0,0,1,0,8.118ZM4.058,2.706a1.353,1.353,0,0,0,0,2.706H39.235a1.353,1.353,0,0,0,0-2.706Z" transform="translate(18.941 70.353)" fill="#05f"/>
  <path id="Shape-5" data-name="Shape" d="M79.823,51.411H1.353A1.354,1.354,0,0,1,0,50.059V5.413A5.419,5.419,0,0,1,5.413,0h70.35a5.419,5.419,0,0,1,5.414,5.413V50.059A1.354,1.354,0,0,1,79.823,51.411ZM5.413,2.706A2.71,2.71,0,0,0,2.706,5.413V48.706H78.471V5.413a2.71,2.71,0,0,0-2.708-2.707Z" transform="translate(0 0)" fill="#05f"/>
  <path id="Shape-6" data-name="Shape" d="M31.118,13.53H1.353a1.353,1.353,0,0,1,0-2.706c4.489,0,6.765-3.187,6.765-9.471A1.354,1.354,0,0,1,9.47,0H23a1.354,1.354,0,0,1,1.352,1.353c0,6.285,2.276,9.471,6.765,9.471a1.353,1.353,0,0,1,0,2.706ZM10.787,2.706c-.2,3.514-1.154,6.245-2.844,8.118H24.529C22.837,8.95,21.88,6.219,21.685,2.706h-10.9Z" transform="translate(24.353 59.53)" fill="#05f"/>
  <path id="Shape-7" data-name="Shape" d="M12.5,17.589a1.356,1.356,0,0,1-.956-.4L8.282,13.925,6.369,15.839a1.352,1.352,0,0,1-2.253-.568L.058,1.741A1.352,1.352,0,0,1,1.742.057l13.53,4.058a1.353,1.353,0,0,1,.567,2.253L14.021,8.185l3.266,3.267a1.349,1.349,0,0,1,0,1.912l-3.826,3.827A1.357,1.357,0,0,1,12.5,17.589ZM8.282,10.831a1.756,1.756,0,0,1,1.248.516L12.5,14.322l1.913-1.914L11.279,9.269a1.533,1.533,0,0,1,0-2.166l1.047-1.047L3.371,3.37l2.686,8.952.976-.977A1.76,1.76,0,0,1,8.282,10.831Z" transform="translate(47.362 28.412)" fill="#05f"/>
  <path id="Shape-8" data-name="Shape" d="M39.235,9.47H1.353A1.354,1.354,0,0,1,0,8.118V1.353A1.354,1.354,0,0,1,1.353,0H39.235a1.354,1.354,0,0,1,1.353,1.353V8.118A1.354,1.354,0,0,1,39.235,9.47ZM2.706,2.706V6.764H37.882V2.706Z" transform="translate(17.588 10.824)" fill="#05f"/>
  <path id="Shape-9" data-name="Shape" d="M12.176,8.118H1.353A1.354,1.354,0,0,1,0,6.764V1.353A1.354,1.354,0,0,1,1.353,0H12.176A1.354,1.354,0,0,1,13.53,1.353V6.764A1.355,1.355,0,0,1,12.176,8.118ZM2.706,2.706V5.412h8.118V2.706Z" transform="translate(23 25.706)" fill="#05f"/>
  <path id="Shape-10" data-name="Shape" d="M33.561,28.412H1.353A1.354,1.354,0,0,1,0,27.059V1.353A1.354,1.354,0,0,1,1.353,0H39.235a1.354,1.354,0,0,1,1.353,1.353V21.373a1.352,1.352,0,0,1-1.741,1.3l-5.7-1.712,1.713,5.711a1.354,1.354,0,0,1-1.3,1.742ZM2.706,2.706v23H31.742L29.83,19.331a1.352,1.352,0,0,1,1.684-1.686l6.368,1.91V2.706Z" transform="translate(17.588 10.824)" fill="#05f"/>
</svg>
