<svg id="coding" xmlns="http://www.w3.org/2000/svg" width="65.642" height="81.018" viewBox="0 0 65.642 81.018">
  <path id="Shape" d="M35.182,27.194H30.459a2.621,2.621,0,0,1-2.618-2.617V19.854a2.621,2.621,0,0,1,2.618-2.617h1.174V9.128H18.447v7.457a2.576,2.576,0,0,1-2.573,2.573H9.959v1.175a2.621,2.621,0,0,1-2.618,2.617H2.617A2.62,2.62,0,0,1,0,20.333V15.609a2.62,2.62,0,0,1,2.617-2.617H7.341a2.621,2.621,0,0,1,2.618,2.617v1.175h5.915a.2.2,0,0,0,.2-.2V9.128H8.986A2.092,2.092,0,0,1,6.9,7.038V1.187a1.187,1.187,0,1,1,2.373,0V6.754h29.2a1.187,1.187,0,1,1,0,2.373H34.007v8.109h1.175A2.62,2.62,0,0,1,37.8,19.854v4.723A2.62,2.62,0,0,1,35.182,27.194ZM30.459,19.61a.245.245,0,0,0-.245.244v4.723a.245.245,0,0,0,.245.244h4.723a.244.244,0,0,0,.244-.244V19.854a.244.244,0,0,0-.244-.244ZM2.617,15.365a.244.244,0,0,0-.244.244v4.724a.244.244,0,0,0,.244.244H7.341a.244.244,0,0,0,.244-.244V15.609a.244.244,0,0,0-.244-.244Z" transform="translate(0 53.824)" fill="#fff"/>
  <path id="Shape-2" data-name="Shape" d="M25.083,0H1.187a1.187,1.187,0,0,0,0,2.374h23.9a1.187,1.187,0,0,0,0-2.374Z" transform="translate(13.532 21.933)" fill="#fff"/>
  <path id="Shape-3" data-name="Shape" d="M1.187,0A1.187,1.187,0,0,0,0,1.187v.13a1.187,1.187,0,0,0,2.374,0v-.13A1.187,1.187,0,0,0,1.187,0Z" transform="translate(42.45 21.731)" fill="#fff"/>
  <path id="Shape-4" data-name="Shape" d="M1.187,0A1.187,1.187,0,0,0,0,1.187v.13a1.187,1.187,0,0,0,2.374,0v-.13A1.187,1.187,0,0,0,1.187,0Z" transform="translate(46.092 21.731)" fill="#fff"/>
  <path id="Shape-5" data-name="Shape" d="M1.187,0A1.187,1.187,0,0,0,0,1.187v.13a1.187,1.187,0,0,0,2.374,0v-.13A1.187,1.187,0,0,0,1.187,0Z" transform="translate(49.734 21.731)" fill="#fff"/>
  <path id="Shape-6" data-name="Shape" d="M8.084,51.352A1.188,1.188,0,0,1,6.9,50.166V21.229a3.165,3.165,0,0,1,3.162-3.162h6.015V10.61a.2.2,0,0,0-.2-.2H9.959v1.175A2.621,2.621,0,0,1,7.341,14.2H2.617A2.62,2.62,0,0,1,0,11.585V6.862A2.62,2.62,0,0,1,2.617,4.245H7.341A2.621,2.621,0,0,1,9.959,6.862V8.036h5.915a2.576,2.576,0,0,1,2.573,2.573v7.457H31.634V9.959H30.459a2.621,2.621,0,0,1-2.618-2.618V2.617A2.621,2.621,0,0,1,30.459,0h4.723A2.62,2.62,0,0,1,37.8,2.617V7.341a2.621,2.621,0,0,1-2.617,2.618H34.007v8.109H47.194V10.61a2.576,2.576,0,0,1,2.573-2.573h5.916V6.862A2.62,2.62,0,0,1,58.3,4.245h4.724a2.62,2.62,0,0,1,2.617,2.617v4.723A2.621,2.621,0,0,1,63.023,14.2H58.3a2.62,2.62,0,0,1-2.617-2.617V10.41H49.767a.2.2,0,0,0-.2.2v7.457h6.015a3.165,3.165,0,0,1,3.162,3.162V32.654a1.187,1.187,0,1,1-2.373,0V27.9H9.27V50.166A1.188,1.188,0,0,1,8.084,51.352Zm1.974-30.911a.789.789,0,0,0-.788.788v4.295h47.1V21.229a.789.789,0,0,0-.788-.788ZM58.3,6.617a.245.245,0,0,0-.244.245v4.723a.244.244,0,0,0,.244.244h4.723a.245.245,0,0,0,.245-.244V6.862a.245.245,0,0,0-.245-.245Zm-55.683,0a.245.245,0,0,0-.244.245v4.723a.244.244,0,0,0,.244.244H7.341a.244.244,0,0,0,.244-.244V6.862a.245.245,0,0,0-.244-.245ZM30.459,2.373a.244.244,0,0,0-.244.244V7.341a.244.244,0,0,0,.244.244h4.723a.244.244,0,0,0,.244-.244V2.617a.244.244,0,0,0-.244-.244Z" transform="translate(0)" fill="#fff"/>
  <path id="Shape-7" data-name="Shape" d="M20.9,40.462H16.173a2.62,2.62,0,0,1-2.617-2.617V36.67H7.64A2.576,2.576,0,0,1,5.068,34.1V26.639H1.187a1.187,1.187,0,1,1,0-2.373H14.244V1.187a1.187,1.187,0,1,1,2.373,0V24.551a2.091,2.091,0,0,1-2.089,2.089H7.441V34.1a.2.2,0,0,0,.2.2h5.916V33.121A2.62,2.62,0,0,1,16.173,30.5H20.9a2.62,2.62,0,0,1,2.617,2.617v4.723A2.62,2.62,0,0,1,20.9,40.462Zm-4.724-7.584a.244.244,0,0,0-.244.244v4.723a.244.244,0,0,0,.244.244H20.9a.245.245,0,0,0,.245-.244V33.121a.245.245,0,0,0-.245-.244Z" transform="translate(42.127 36.312)" fill="#fff"/>
  <path id="Shape-8" data-name="Shape" d="M2.865,6.464,7.3,2.026A1.187,1.187,0,0,0,5.625.348L.348,5.625a1.187,1.187,0,0,0,0,1.678L5.625,12.58A1.187,1.187,0,1,0,7.3,10.9Z" transform="translate(14.953 37.371)" fill="#fff"/>
  <path id="Shape-9" data-name="Shape" d="M7.3,5.625,2.026.348A1.187,1.187,0,0,0,.348,2.026L4.785,6.464.348,10.9A1.187,1.187,0,1,0,2.026,12.58L7.3,7.3A1.187,1.187,0,0,0,7.3,5.625Z" transform="translate(43.038 37.371)" fill="#fff"/>
  <path id="Shape-10" data-name="Shape" d="M7.009.14A1.187,1.187,0,0,0,5.4.628L.14,10.481A1.187,1.187,0,1,0,2.234,11.6L7.5,1.746A1.187,1.187,0,0,0,7.009.14Z" transform="translate(24.706 38.071)" fill="#fff"/>
  <path id="Shape-11" data-name="Shape" d="M1.187,0A1.187,1.187,0,0,0,0,1.187v.12a1.187,1.187,0,1,0,2.374,0v-.12A1.187,1.187,0,0,0,1.187,0Z" transform="translate(31.298 47.674)" fill="#fff"/>
  <path id="Shape-12" data-name="Shape" d="M1.187,0A1.187,1.187,0,0,0,0,1.187v.12a1.187,1.187,0,1,0,2.374,0v-.12A1.187,1.187,0,0,0,1.187,0Z" transform="translate(35.164 47.674)" fill="#fff"/>
  <path id="Shape-13" data-name="Shape" d="M1.187,0A1.187,1.187,0,0,0,0,1.187v.12a1.187,1.187,0,1,0,2.374,0v-.12A1.187,1.187,0,0,0,1.187,0Z" transform="translate(39.029 47.674)" fill="#fff"/>
</svg>
