<svg xmlns="http://www.w3.org/2000/svg" width="84.129" height="84.128" viewBox="0 0 84.129 84.128">
  <g id="gear" transform="translate(1.5 1.5)">
    <path id="Shape" d="M33.14,61.474H28.331a3.768,3.768,0,0,1-3.763-3.763V54.768a2.43,2.43,0,0,0-1.574-2.027,23.235,23.235,0,0,1-2.339-.978,2.381,2.381,0,0,0-1.033-.221,2.152,2.152,0,0,0-1.5.538l-2.094,2.094a3.765,3.765,0,0,1-5.323,0l-3.4-3.4a3.769,3.769,0,0,1,0-5.322l2.095-2.095a2.4,2.4,0,0,0,.317-2.535,23.306,23.306,0,0,1-.978-2.338,2.427,2.427,0,0,0-2.027-1.573H3.763A3.768,3.768,0,0,1,0,33.141V28.332a3.768,3.768,0,0,1,3.763-3.763H6.706A2.43,2.43,0,0,0,8.733,23a23.154,23.154,0,0,1,.977-2.338,2.4,2.4,0,0,0-.316-2.535L7.3,16.027a3.762,3.762,0,0,1,0-5.322l3.4-3.4a3.763,3.763,0,0,1,5.323,0L18.118,9.4a2.153,2.153,0,0,0,1.5.538,2.409,2.409,0,0,0,1.033-.222,23.5,23.5,0,0,1,2.341-.978,2.427,2.427,0,0,0,1.574-2.026V3.763A3.768,3.768,0,0,1,28.331,0h4.808A3.768,3.768,0,0,1,36.9,3.763V6.707a2.427,2.427,0,0,0,1.573,2.026,23.491,23.491,0,0,1,2.343.981,2.393,2.393,0,0,0,1.036.223,2.145,2.145,0,0,0,1.5-.537L45.447,7.3a3.764,3.764,0,0,1,5.322,0l3.4,3.4a3.767,3.767,0,0,1,0,5.322l-2.094,2.095a2.4,2.4,0,0,0-.315,2.533A23.278,23.278,0,0,1,52.738,23a2.43,2.43,0,0,0,2.027,1.574h2.942a3.77,3.77,0,0,1,3.764,3.764v4.809a3.768,3.768,0,0,1-3.763,3.763H54.767a2.427,2.427,0,0,0-2.026,1.574,23.491,23.491,0,0,1-.977,2.34,2.4,2.4,0,0,0,.315,2.534l2.093,2.094a3.771,3.771,0,0,1,0,5.323l-3.4,3.4a3.762,3.762,0,0,1-5.322,0l-2.095-2.095a2.153,2.153,0,0,0-1.5-.538,2.407,2.407,0,0,0-1.032.222,23.432,23.432,0,0,1-2.342.978A2.427,2.427,0,0,0,36.9,54.768v2.943A3.768,3.768,0,0,1,33.14,61.474ZM30.735,19.708a11.03,11.03,0,1,0,11.03,11.029A11.042,11.042,0,0,0,30.735,19.708Z" transform="translate(19.656 19.653)" fill="none" stroke="#fff" stroke-miterlimit="10" stroke-width="3"/>
    <path id="Shape-2" data-name="Shape" d="M17.2,31.99h-2.4a2.511,2.511,0,0,1-2.509-2.509V28.007a.613.613,0,0,0-.37-.421,12.262,12.262,0,0,1-1.233-.516.6.6,0,0,0-.244-.047.488.488,0,0,0-.306.084L9.085,28.154a2.509,2.509,0,0,1-3.549,0l-1.7-1.7a2.508,2.508,0,0,1,0-3.548l1.047-1.047a.6.6,0,0,0,.036-.55A12.093,12.093,0,0,1,4.4,20.076a.613.613,0,0,0-.421-.369H2.509A2.511,2.511,0,0,1,0,17.2v-2.4a2.512,2.512,0,0,1,2.509-2.51H3.983a.613.613,0,0,0,.421-.37A12.267,12.267,0,0,1,4.92,10.68a.6.6,0,0,0-.036-.549L3.837,9.085a2.512,2.512,0,0,1,0-3.549l1.7-1.7a2.51,2.51,0,0,1,3.548,0l1.047,1.047a.485.485,0,0,0,.305.085.588.588,0,0,0,.244-.048A12.058,12.058,0,0,1,11.916,4.4a.613.613,0,0,0,.369-.421V2.509A2.511,2.511,0,0,1,14.793,0h2.4a2.512,2.512,0,0,1,2.51,2.509V3.983a.613.613,0,0,0,.37.421,12.262,12.262,0,0,1,1.233.516.582.582,0,0,0,.244.048.487.487,0,0,0,.306-.085l1.047-1.047a2.509,2.509,0,0,1,3.549,0l1.7,1.7a2.513,2.513,0,0,1,0,3.549l-1.048,1.047a.6.6,0,0,0-.036.549,12.19,12.19,0,0,1,.516,1.234.613.613,0,0,0,.421.369h1.473a2.512,2.512,0,0,1,2.51,2.51v2.4a2.512,2.512,0,0,1-2.51,2.509H28.009a.614.614,0,0,0-.422.369,12.187,12.187,0,0,1-.515,1.236.6.6,0,0,0,.037.55l1.047,1.047a2.512,2.512,0,0,1,0,3.548l-1.7,1.7a2.51,2.51,0,0,1-3.548,0L21.86,27.108a.493.493,0,0,0-.306-.085.584.584,0,0,0-.245.048,12.083,12.083,0,0,1-1.233.516.613.613,0,0,0-.369.421v1.473A2.512,2.512,0,0,1,17.2,31.99ZM16,11.107a4.888,4.888,0,1,0,4.887,4.888A4.893,4.893,0,0,0,16,11.107Z" transform="translate(0 0)" fill="none" stroke="#fff" stroke-miterlimit="10" stroke-width="3"/>
  </g>
</svg>
