<svg id="question" xmlns="http://www.w3.org/2000/svg" width="81.019" height="72.641" viewBox="0 0 81.019 72.641">
  <path id="Shape" d="M49.238,72.641a1.412,1.412,0,0,1-1-.421l-8.784-8.972H35.466a9.232,9.232,0,0,1-9.222-9.222V34.615a9.2,9.2,0,0,1,.441-2.815H25.3L14.41,38.853a1.4,1.4,0,0,1-2.165-1.238l.249-5.814H7.87A7.879,7.879,0,0,1,0,23.93V7.872A7.88,7.88,0,0,1,7.87,0H37.919a7.881,7.881,0,0,1,7.872,7.872V23.93a7.9,7.9,0,0,1-.138,1.463h26.14a9.234,9.234,0,0,1,9.225,9.222V54.027a9.234,9.234,0,0,1-9.225,9.222H51.441l-.806,8.128a1.408,1.408,0,0,1-.931,1.185A1.384,1.384,0,0,1,49.238,72.641ZM35.466,28.2a6.422,6.422,0,0,0-6.415,6.415V54.027a6.422,6.422,0,0,0,6.415,6.415h4.574a1.412,1.412,0,0,1,1,.421l7.094,7.246.636-6.4a1.4,1.4,0,0,1,1.4-1.265H71.794a6.424,6.424,0,0,0,6.417-6.415V34.615A6.424,6.424,0,0,0,71.795,28.2ZM7.87,2.807A5.07,5.07,0,0,0,2.806,7.872V23.93A5.069,5.069,0,0,0,7.87,28.993H13.96a1.4,1.4,0,0,1,1.4,1.464l-.2,4.563,8.962-5.8a1.4,1.4,0,0,1,.763-.226h3.273a9.167,9.167,0,0,1,7.3-3.6h7.3a5.053,5.053,0,0,0,.216-1.463V7.872a5.071,5.071,0,0,0-5.066-5.065Z" transform="translate(0 0)" fill="#fff"/>
  <path id="Shape-2" data-name="Shape" d="M12.234,5.735A6.123,6.123,0,0,0,0,6.123a1.4,1.4,0,1,0,2.807,0,3.317,3.317,0,0,1,3.53-3.31A3.317,3.317,0,0,1,7.851,8.955,6.472,6.472,0,0,0,4.72,14.5a1.4,1.4,0,1,0,2.807,0,3.685,3.685,0,0,1,1.79-3.155A6.121,6.121,0,0,0,12.234,5.735Z" transform="translate(16.772 4.912)" fill="#fff"/>
  <path id="Shape-3" data-name="Shape" d="M1.4,0A1.4,1.4,0,0,0,0,1.4V13.281a1.4,1.4,0,0,0,2.807,0V1.4A1.4,1.4,0,0,0,1.4,0Z" transform="translate(52.228 33.852)" fill="#fff"/>
  <circle id="Oval" cx="1.403" cy="1.403" r="1.403" transform="translate(52.226 52.018)" fill="#fff"/>
  <circle id="Oval-2" data-name="Oval" cx="1.403" cy="1.403" r="1.403" transform="translate(21.49 23.215)" fill="#fff"/>
</svg>
